<svg xmlns="http://www.w3.org/2000/svg" width="1440" height="309" viewBox="0 0 1440 309">
    <g fill="none" fill-rule="nonzero">
        <path fill="#F9D9FF" d="M0 40c76.873-14.667 145.206-22 205-22 89.69 0 329.73 83 463 83 133.27 0 220.145-73 364-73s290.207 64.15 408 64.15V309c-68.63.198-119.963-3.468-154-11-123.903-27.417-235.572-71-313-71-164 0-203 82-353 82s-236-62-406-72c-113.333-6.667-184.667-2-214 14V40z" opacity=".729"/>
        <path fill="#D9E2FF" d="M0 269.008c76.873 14.666 145.206 22 205 22 89.69 0 329.73-83 463-83 133.27 0 220.145 73 364 73s290.207-64.15 408-64.15V.008c-68.63-.199-119.963 3.468-154 11-123.903 27.417-235.572 71-313 71-164 0-203-82-353-82s-236 62-406 72c-113.333 6.666-184.667 2-214-14v211z" opacity=".597"/>
    </g>
</svg>
