<svg xmlns="http://www.w3.org/2000/svg" width="142" height="98" viewBox="0 0 142 98">
    <g fill="none" fill-rule="nonzero">
        <path stroke="#1B8D19" stroke-width="3" d="M23.5 40.66a.5.5 0 0 0-.5.5v19.918a.5.5 0 0 0 .806.396l15-11.632a.5.5 0 0 0 .194-.395V41.16a.5.5 0 0 0-.5-.5h-15z"/>
        <path fill="#B5E4B4" d="M55 44.216V95.17a2 2 0 0 1-2 2H4a2 2 0 0 1-2-2V65.418a2 2 0 0 1 1.206-1.835l49-21.203A2 2 0 0 1 55 44.216z"/>
        <ellipse cx="122.5" cy="32.608" fill="#B5E4B4" rx="19.5" ry="19.608"/>
        <path stroke="#1B8D19" stroke-width="3" d="M50.5 96.5h54V57.795a.5.5 0 0 0-.258-.438l-53-29.32a.5.5 0 0 0-.742.438V96.5z"/>
        <path fill="#1B8D19" d="M16 21.055c-3.645 0-6.6-2.935-6.6-6.555 0-3.62 2.955-6.555 6.6-6.555 3.645 0 6.6 2.935 6.6 6.555 0 3.62-2.955 6.555-6.6 6.555zm2.6-7.15c.884 0 1.6-.712 1.6-1.59 0-.878-.716-1.589-1.6-1.589-.884 0-1.6.711-1.6 1.59 0 .877.716 1.588 1.6 1.588z"/>
        <rect width="1" height="5.562" x="15.8" fill="#B5E4B4" rx=".3"/>
        <rect width="1" height="5.562" x="15.8" y="23.438" fill="#B5E4B4" rx=".3"/>
        <g fill="#B5E4B4">
            <path d="M26.596 4.358a.297.297 0 0 1 .06.419l-3.01 3.966a.3.3 0 0 1-.418.058h-.001a.297.297 0 0 1-.059-.418l3.01-3.966a.3.3 0 0 1 .418-.059zM5.84 4.35a.297.297 0 0 0-.06.418l3.01 3.966a.3.3 0 0 0 .419.059.297.297 0 0 0 .06-.418l-3.01-3.966a.3.3 0 0 0-.418-.06z"/>
        </g>
        <g fill="#B5E4B4">
            <path d="M26.596 24.84a.297.297 0 0 0 .06-.418l-3.01-3.966a.3.3 0 0 0-.418-.059l-.001.001a.297.297 0 0 0-.059.418l3.01 3.966a.3.3 0 0 0 .418.058zM5.84 24.849a.297.297 0 0 1-.06-.419l3.01-3.966a.3.3 0 0 1 .419-.058.297.297 0 0 1 .06.418l-3.01 3.966a.3.3 0 0 1-.418.059z"/>
        </g>
        <path fill="#B5E4B4" d="M32 13.805a.298.298 0 0 1-.298.298h-5.004a.298.298 0 1 1 0-.596h5.004c.165 0 .298.133.298.298zM5.6 13.805a.298.298 0 0 1-.298.298H.298a.298.298 0 1 1 0-.596h5.004c.165 0 .298.133.298.298z"/>
        <ellipse cx="73.5" cy="77.552" fill="#B5E4B4" rx="9.5" ry="9.552"/>
        <rect width="137" height="3" x=".5" y="95" fill="#1B8D19" rx="1.5"/>
        <path fill="#1B8D19" d="M121.5 32.608h2v64.354h-2z"/>
        <ellipse cx="77.5" cy="77.552" stroke="#1B8D19" stroke-width="3" rx="9.5" ry="9.552"/>
    </g>
</svg>
