<svg xmlns="http://www.w3.org/2000/svg" xmlns:xlink="http://www.w3.org/1999/xlink" width="834" height="548" viewBox="0 0 834 548">
    <defs>
        <path id="a" d="M35.976 4.14L151 0l-37 118H0z"/>
        <path id="c" d="M63.958 18.42L265 0l-50 220-215 1z"/>
        <path id="e" d="M65.558 62.4L311 0l-25.584 352H0z"/>
    </defs>
    <g fill="none" fill-rule="evenodd">
        <g fill-rule="nonzero">
            <path fill="#F4F9FF" d="M131.198 530.375c-156 0-228-298.375 104-281.375 35.896 1.838 61.486-7.887 86-26C442.446 133.414 429.435 73 529 73c108.69 0 101 50 174.198 118.375C776.396 259.751 834 306 834 373c0 140-162.1 155.373-286.802 157.375-149.907 2.407-330.84 0-416 0z"/>
            <path fill="#EFFAE3" d="M131.198 547.87c-156 0-228-29.41 104-27.735 35.896.182 61.486-.777 86-2.562 121.248-8.83 74.535-16.264 214-16.264 93.881 0 108.69 5.761 168 13.146 62.494 7.782 123 14.055 123 18.1 0 18.531-154.298 15.118-279 15.315-149.907.237-330.84 0-416 0z"/>
        </g>
        <g fill="#F5A623" fill-rule="nonzero">
            <path d="M396.91 206H409l9 320h-29zM177.636 325h7.088L190 519h-17z"/>
        </g>
        <g transform="translate(7 -4)">
            <g transform="translate(111 412)">
                <mask id="b" fill="#fff">
                    <use xlink:href="#a"/>
                </mask>
                <use fill="#4B764A" fill-rule="nonzero" xlink:href="#a"/>
                <g fill-rule="nonzero" stroke="#FFF" mask="url(#b)">
                    <path stroke-linecap="square" stroke-width="3.2" d="M135 54.932L18 57.569M89 2L59 118"/>
                    <path d="M51 4L18 118M110 0L80 118M70 2L37 118M130 0l-28 118"/>
                </g>
            </g>
            <g transform="translate(223 310)">
                <mask id="d" fill="#fff">
                    <use xlink:href="#c"/>
                </mask>
                <use fill="#518550" fill-rule="nonzero" xlink:href="#c"/>
                <g fill-rule="nonzero" stroke="#FFF" mask="url(#d)">
                    <path stroke-linecap="square" stroke-width="3.2" d="M243 99.656l-210 10.55M164 8l-51 213"/>
                    <path d="M45 78l234-13M10 183.5l234-6.5M45 48l234-13M15 145l233-10M97 14L39 221M186 221L231 2M131 11L79 220M148.692 221.541L197 5"/>
                </g>
            </g>
            <g transform="translate(438 178)">
                <mask id="f" fill="#fff">
                    <use xlink:href="#e"/>
                </mask>
                <use fill="#5A9559" fill-rule="nonzero" xlink:href="#e"/>
                <g stroke="#FFF" stroke-linecap="square" mask="url(#f)">
                    <path stroke-width="3.2" d="M175.604 36.4L134 353.2"/>
                    <g stroke-width="1.6">
                        <path d="M221 12l-44 341M106 42L45 353M264 0l-40 357" opacity=".699"/>
                        <path d="M324.058 51.841L57.942 94.16" opacity=".813"/>
                        <path d="M141 34L88 354" opacity=".699"/>
                        <path d="M311.162 113.525l-266.324 29.95M288.053 293.486l-277.106 9.028M294.715 238.623l-271.43 14.754" opacity=".813"/>
                    </g>
                    <path stroke-width="3.2" d="M298.323 175.637L32 205.587"/>
                </g>
            </g>
            <g fill-rule="nonzero">
                <g fill="#D00202" transform="translate(240 33)">
                    <circle cx="156" cy="173" r="8"/>
                    <path d="M132.691 176.837L4.257 270.565a1.966 1.966 0 0 0 2.756.512c48.344-33.804 83.393-55.32 105.148-64.55 20.58-8.73 30.587-15.588 30.023-20.572a3 3 0 0 0-.494-1.34l-4.743-7.033a3 3 0 0 0-4.256-.745zM177.54 182.414l158.587-11.427a1.966 1.966 0 0 0-2.066-1.894c-58.91 3.05-100.036 2.723-123.377-.978-22.078-3.502-34.2-2.99-36.362 1.535a3 3 0 0 0-.292 1.399l.296 8.477a3 3 0 0 0 3.214 2.888zM158.409 150.483L101.115 2.167a1.966 1.966 0 0 0-1.207 2.53c20.14 55.445 31.852 94.868 35.136 118.271 3.107 22.138 7.14 33.58 12.1 34.325a3 3 0 0 0 1.422-.13l8.02-2.762a3 3 0 0 0 1.823-3.918z"/>
                </g>
                <path d="M235 0h346v346H235z"/>
            </g>
            <g fill-rule="nonzero">
                <g fill="#D00202" transform="translate(50.003 187.42)">
                    <circle cx="124.89" cy="138.5" r="6.405"/>
                    <path d="M106.231 141.57L3.408 216.608a1.574 1.574 0 0 0 2.207.41c38.702-27.063 66.762-44.288 84.178-51.677 16.48-6.991 24.492-12.482 24.036-16.472a2.4 2.4 0 0 0-.395-1.07l-3.798-5.632a2.4 2.4 0 0 0-3.405-.597zM142.133 146.037l126.963-9.148a1.574 1.574 0 0 0-1.654-1.517c-47.163 2.441-80.087 2.18-98.773-.783-17.68-2.804-27.384-2.393-29.112 1.232a2.4 2.4 0 0 0-.232 1.116l.237 6.79a2.4 2.4 0 0 0 2.57 2.31zM126.82 120.475L80.95 1.735a1.574 1.574 0 0 0-.966 2.025c16.123 44.388 25.5 75.95 28.13 94.685 2.487 17.728 5.717 26.888 9.689 27.48a2.4 2.4 0 0 0 1.136-.104l6.423-2.212a2.4 2.4 0 0 0 1.457-3.134z"/>
                </g>
                <path d="M46 161h277v277H46z"/>
            </g>
            <g fill="#E3EFFE" fill-rule="nonzero" transform="translate(471 119)">
                <rect width="80.137" height="23.605" y="27" rx="11.803"/>
                <path d="M50 23h18.618a2.02 2.02 0 0 0 .403 4H28.979a2.021 2.021 0 0 0 .403-4H50z"/>
                <rect width="80.137" height="23.605" x="21" rx="11.803"/>
            </g>
            <g fill="#F2F8FF" fill-rule="nonzero" transform="matrix(-1 0 0 1 102 4)">
                <rect width="80.137" height="23.605" y="27" rx="11.803"/>
                <path d="M50 23h18.618a2.02 2.02 0 0 0 .403 4H28.979a2.021 2.021 0 0 0 .403-4H50z"/>
                <rect width="80.137" height="23.605" x="21" rx="11.803"/>
            </g>
            <rect width="51.137" height="23.605" x="263" y="134.395" fill="#F2F8FF" fill-rule="nonzero" rx="11.803"/>
            <rect width="94.137" height="23.605" x="629" y="87" fill="#F2F8FF" fill-rule="nonzero" rx="11.803"/>
            <g fill-rule="nonzero" transform="translate(112 16)">
                <path fill="#F5A623" d="M80 106c-18.225 0-33-14.775-33-33s14.775-33 33-33 33 14.775 33 33-14.775 33-33 33zm13-36a8 8 0 1 0 0-16 8 8 0 0 0 0 16z"/>
                <rect width="3" height="28" x="79" fill="#FFCB78" rx="1.5"/>
                <rect width="3" height="28" x="79" y="118" fill="#FFCB78" rx="1.5"/>
                <g fill="#FFCB78" transform="translate(28 21)">
                    <rect width="3" height="28" x="95.059" y="-1.874" rx="1.5" transform="rotate(37 96.559 12.126)"/>
                    <rect width="3" height="28" x="8.123" y="-1.916" rx="1.5" transform="scale(-1 1) rotate(37 0 -16.678)"/>
                </g>
                <g fill="#FFCB78" transform="matrix(1 0 0 -1 28 126)">
                    <rect width="3" height="28" x="95.059" y="-1.874" rx="1.5" transform="rotate(37 96.559 12.126)"/>
                    <rect width="3" height="28" x="8.123" y="-1.916" rx="1.5" transform="scale(-1 1) rotate(37 0 -16.678)"/>
                </g>
                <rect width="3" height="28" x="144.5" y="55.5" fill="#FFCB78" rx="1.5" transform="rotate(90 146 69.5)"/>
                <rect width="3" height="28" x="12.5" y="55.5" fill="#FFCB78" rx="1.5" transform="rotate(90 14 69.5)"/>
            </g>
        </g>
    </g>
</svg>
