<svg version="1" xmlns="http://www.w3.org/2000/svg" width="401.333" height="401.333" viewBox="0 0 301.000000 301.000000"><path d="M135 1.6C69.3 10 18.7 55.4 5.1 118.4c-10.6 48.9 3.6 98.5 38.6 134.7 46 47.6 116.2 59 175.1 28.4 13.9-7.3 24.7-15.1 36.1-26.5 12-12 20.6-24.1 28.1-39.5 11.3-23.2 15.4-40.9 15.3-66-.1-8.8-.5-18-1-20.5l-.8-4.5-4.9-.3c-4.7-.3-4.8-.2-4.2 2 .4 1.3 1 9.7 1.3 18.8.8 25.6-2.9 43.4-13.6 65.5-7.6 15.6-15.8 27-28.4 39.2-19.2 18.6-41 30.3-67.6 36.4-12.8 3-35.6 3.6-49.6 1.5-12.6-2-30.8-7.7-41.6-13.1-9.9-5-21.1-12.4-20.3-13.6.3-.5-1.5-3.2-4-6-13-14.4-23.5-36.3-27.7-57.4-1.8-9.2-1.8-35.8 0-45 5-25.5 17.2-47.8 36.2-66.1 16.8-16.2 38.5-27.6 60.9-31.8l8.1-1.6 8.7 4.5c15.3 7.9 21.3 11.4 40.2 23.9 32.3 21.2 40.6 25.4 61.9 30.7 11.5 3 38.1 5.9 41.3 4.6 1.6-.5 1.5-1.2-.3-7.9-14.6-52.6-58.6-93.2-113.8-104.9C169.7 2 143.3.6 135 1.6zm14.5 21c19.1 3.2 45.3 13.9 64.5 26.4 12.8 8.3 13.2 9 2.3 3.6-5-2.5-9.5-4.6-9.9-4.6-.4 0-6-2.4-12.3-5.4-43.4-20.3-80.6-22.7-112.6-7.1-7.9 3.8-21.3 12.8-22.9 15.4-.3.5 2.5-.6 6.2-2.5 12.7-6.3 27-8.5 41.3-6.4 4.6.6 8.8 1.4 9.2 1.7.5.3-3.4 2.2-8.6 4.3C88.6 55.1 74.2 64.6 60 78.9c-19.4 19.5-32.2 43.8-37.6 71.7-2.5 12.7-2.3 37.7.4 49.9 1.1 4.9 1.8 9.1 1.7 9.3-.1.1-1.9-4.1-4-9.5-12-31.5-12.5-64.9-1.3-97.8 3.3-9.6 13.5-29 19.8-37.3 26.4-35.4 64.4-50.1 110.5-42.6z"/></svg>